<?xml version="1.0" encoding="UTF-8" standalone="no"?>
<!-- Created with Inkscape (http://www.inkscape.org/) -->

<svg
   version="1.1"
   id="svg2"
   width="192.79733"
   height="212.03133"
   viewBox="0 0 192.79733 212.03133"
   sodipodi:docname="Logo-only.svg"
   inkscape:version="1.2.1 (9c6d41e410, 2022-07-14)"
   xmlns:inkscape="http://www.inkscape.org/namespaces/inkscape"
   xmlns:sodipodi="http://sodipodi.sourceforge.net/DTD/sodipodi-0.dtd"
   xmlns="http://www.w3.org/2000/svg"
   xmlns:svg="http://www.w3.org/2000/svg">
  <defs
     id="defs6">
    <rect
       x="62.079292"
       y="450.07486"
       width="309.48352"
       height="146.06892"
       id="rect2605" />
    <clipPath
       clipPathUnits="userSpaceOnUse"
       id="clipPath72">
      <path
         d="m 4209.63,3147.79 c -84.04,0 -152.19,68.14 -152.19,152.19 0,84.05 68.15,152.19 152.19,152.19 84.05,0 152.2,-68.14 152.2,-152.19 0,-84.05 -68.15,-152.19 -152.2,-152.19 z m 684.4,336.34 c -20.96,33.49 -46.03,53.44 -81.3,73.79 l -480.19,277.24 c -75.85,43.78 -169.97,43.78 -245.82,0 l -480.19,-277.24 c -37.88,-21.86 -88.75,-62.33 -92.74,-113.26 -9.49,-121.07 146.47,-196.9 250.73,-252.37 179.63,-95.55 295.75,-150.95 383.46,-240.75 19.45,-19.92 50.23,-54.94 61.65,-82.44 11.42,27.5 42.2,62.52 61.65,82.44 87.7,89.8 203.83,145.2 383.46,240.75 102.67,54.62 253.61,124.03 250.74,252.26 -0.24,10 -4.6,28.63 -11.45,39.58 z"
         id="path70" />
    </clipPath>
    <linearGradient
       x1="0"
       y1="0"
       x2="1"
       y2="0"
       gradientUnits="userSpaceOnUse"
       gradientTransform="matrix(1392.14,0,0,-1392.14,3513.37,3368.55)"
       spreadMethod="pad"
       id="linearGradient78">
      <stop
         style="stop-opacity:1;stop-color:#2b88d9"
         offset="0"
         id="stop74" />
      <stop
         style="stop-opacity:1;stop-color:#26e0f5"
         offset="1"
         id="stop76" />
    </linearGradient>
    <clipPath
       clipPathUnits="userSpaceOnUse"
       id="clipPath88">
      <path
         d="m 4655.36,3112.29 c -213.51,-113.4 -363.32,-166.31 -421.53,-349.61 -6.92,-21.76 -16.03,-45.24 -24.43,-90.27 -8.37,44.72 -17.45,68.12 -24.33,89.8 -58.21,183.31 -208.02,236.22 -421.53,349.61 -221.52,117.65 -268.74,176.58 -277.08,201.46 v -522.83 c 0,-87.46 46.99,-168.85 122.74,-212.6 l 479.54,-276.87 c 17.43,-10.06 33.07,-17.77 50.25,-23.22 -5.8,20.62 -12.66,42.42 -20.94,65.62 -149.8,419.98 -415,523.22 -415,523.22 0,0 123.53,-9.9 300,-192.2 85.54,-88.36 152.67,-194.1 206.28,-304.24 0,0 117.79,213.07 206.52,304.71 176.46,182.3 300,192.2 300,192.2 0,0 -265.21,-103.24 -415,-523.22 -8.28,-23.2 -15.15,-45 -20.95,-65.62 17.19,5.44 32.82,13.16 50.26,23.22 l 479.54,276.87 c 75.75,43.75 122.74,125.14 122.74,212.6 v 522.83 c -8.35,-24.88 -55.56,-83.81 -277.08,-201.46 z"
         id="path86" />
    </clipPath>
    <linearGradient
       x1="0"
       y1="0"
       x2="1"
       y2="0"
       gradientUnits="userSpaceOnUse"
       gradientTransform="matrix(-462.022,-1392.56,-1392.56,462.022,4378.84,3542.88)"
       spreadMethod="pad"
       id="linearGradient94">
      <stop
         style="stop-opacity:1;stop-color:#39b54a"
         offset="0"
         id="stop90" />
      <stop
         style="stop-opacity:1;stop-color:#acdf23"
         offset="1"
         id="stop92" />
    </linearGradient>
  </defs>
  <sodipodi:namedview
     id="namedview4"
     pagecolor="#ffffff"
     bordercolor="#000000"
     borderopacity="0.25"
     inkscape:showpageshadow="2"
     inkscape:pageopacity="0.0"
     inkscape:pagecheckerboard="0"
     inkscape:deskcolor="#d1d1d1"
     showgrid="false"
     inkscape:zoom="1.0953733"
     inkscape:cx="19.171546"
     inkscape:cy="190.34606"
     inkscape:window-width="2560"
     inkscape:window-height="1017"
     inkscape:window-x="-8"
     inkscape:window-y="-8"
     inkscape:window-maximized="1"
     inkscape:current-layer="g10">
    <inkscape:page
       x="0"
       y="0"
       id="page8"
       width="192.79733"
       height="212.03133" />
  </sodipodi:namedview>
  <g
     id="g10"
     inkscape:groupmode="layer"
     inkscape:label="Page 1"
     transform="matrix(1.3333333,0,0,-1.3333333,-464.86132,515.73265)">
    <g
       id="g66"
       transform="scale(0.1)">
      <g
         id="g68"
         clip-path="url(#clipPath72)">
        <path
           d="m 4209.63,3147.79 c -84.04,0 -152.19,68.14 -152.19,152.19 0,84.05 68.15,152.19 152.19,152.19 84.05,0 152.2,-68.14 152.2,-152.19 0,-84.05 -68.15,-152.19 -152.2,-152.19 z m 684.4,336.34 c -20.96,33.49 -46.03,53.44 -81.3,73.79 l -480.19,277.24 c -75.85,43.78 -169.97,43.78 -245.82,0 l -480.19,-277.24 c -37.88,-21.86 -88.75,-62.33 -92.74,-113.26 -9.49,-121.07 146.47,-196.9 250.73,-252.37 179.63,-95.55 295.75,-150.95 383.46,-240.75 19.45,-19.92 50.23,-54.94 61.65,-82.44 11.42,27.5 42.2,62.52 61.65,82.44 87.7,89.8 203.83,145.2 383.46,240.75 102.67,54.62 253.61,124.03 250.74,252.26 -0.24,10 -4.6,28.63 -11.45,39.58"
           style="fill:url(#linearGradient78);fill-opacity:1;fill-rule:nonzero;stroke:none"
           id="path80" />
      </g>
    </g>
    <g
       id="g82"
       transform="scale(0.1)">
      <g
         id="g84"
         clip-path="url(#clipPath88)">
        <path
           d="m 4655.36,3112.29 c -213.51,-113.4 -363.32,-166.31 -421.53,-349.61 -6.92,-21.76 -16.03,-45.24 -24.43,-90.27 -8.37,44.72 -17.45,68.12 -24.33,89.8 -58.21,183.31 -208.02,236.22 -421.53,349.61 -221.52,117.65 -268.74,176.58 -277.08,201.46 v -522.83 c 0,-87.46 46.99,-168.85 122.74,-212.6 l 479.54,-276.87 c 17.43,-10.06 33.07,-17.77 50.25,-23.22 -5.8,20.62 -12.66,42.42 -20.94,65.62 -149.8,419.98 -415,523.22 -415,523.22 0,0 123.53,-9.9 300,-192.2 85.54,-88.36 152.67,-194.1 206.28,-304.24 0,0 117.79,213.07 206.52,304.71 176.46,182.3 300,192.2 300,192.2 0,0 -265.21,-103.24 -415,-523.22 -8.28,-23.2 -15.15,-45 -20.95,-65.62 17.19,5.44 32.82,13.16 50.26,23.22 l 479.54,276.87 c 75.75,43.75 122.74,125.14 122.74,212.6 v 522.83 c -8.35,-24.88 -55.56,-83.81 -277.08,-201.46"
           style="fill:url(#linearGradient94);fill-opacity:1;fill-rule:nonzero;stroke:none"
           id="path96" />
      </g>
    </g>
    <text
       xml:space="preserve"
       transform="matrix(0.75000002,0,0,-0.75000002,0,566.93002)"
       id="text2603"
       style="font-weight:bold;font-size:76px;line-height:0px;font-family:'Open Sans';-inkscape-font-specification:'Open Sans Bold';white-space:pre;shape-inside:url(#rect2605);display:inline;fill:#56a276;fill-opacity:1;stroke-width:20" />
  </g>
</svg>
