<?xml version="1.0" encoding="UTF-8" standalone="no"?>
<!-- Created with Inkscape (http://www.inkscape.org/) -->

<svg
   version="1.1"
   id="svg2"
   width="607.69336"
   height="603.30664"
   viewBox="0 0 607.69336 603.30664"
   sodipodi:docname="patientEdit.svg"
   inkscape:version="1.2.1 (9c6d41e410, 2022-07-14)"
   xmlns:inkscape="http://www.inkscape.org/namespaces/inkscape"
   xmlns:sodipodi="http://sodipodi.sourceforge.net/DTD/sodipodi-0.dtd"
   xmlns="http://www.w3.org/2000/svg"
   xmlns:svg="http://www.w3.org/2000/svg">
  <defs
     id="defs6" />
  <sodipodi:namedview
     id="namedview4"
     pagecolor="#ffffff"
     bordercolor="#000000"
     borderopacity="0.25"
     inkscape:showpageshadow="2"
     inkscape:pageopacity="0.0"
     inkscape:pagecheckerboard="0"
     inkscape:deskcolor="#d1d1d1"
     showgrid="false"
     inkscape:zoom="1.3724364"
     inkscape:cx="304.20353"
     inkscape:cy="159.20592"
     inkscape:window-width="2560"
     inkscape:window-height="1017"
     inkscape:window-x="-8"
     inkscape:window-y="-8"
     inkscape:window-maximized="1"
     inkscape:current-layer="g10">
    <inkscape:page
       x="0"
       y="0"
       id="page8"
       width="607.69336"
       height="603.30664" />
  </sodipodi:namedview>
  <g
     id="g10"
     inkscape:groupmode="layer"
     inkscape:label="Page 1"
     transform="matrix(1.3333333,0,0,-1.3333333,0,603.30667)">
    <path
       d="m 385.695,110.227 c -0.005,0.005 -0.01,0.086 -0.015,0.239 -0.005,0.176 -0.01,0.397 -0.017,0.674 -0.008,0.618 -0.021,1.481 -0.037,2.586 -0.02,2.269 -0.049,5.531 -0.085,9.643 l 0.154,-0.154 c -11.343,-0.023 -29.381,-0.059 -49.673,-0.099 0.039,0.04 0.019,0.02 -0.002,0 -0.037,-0.037 -0.075,-0.074 0.252,0.253 v -0.004 -0.006 -0.014 -0.026 -0.053 -0.106 -0.211 -0.422 -0.843 c 0,-0.561 -10e-4,-1.12 -10e-4,-1.676 0,-1.114 0,-2.22 -0.001,-3.317 -10e-4,-2.193 -0.003,-4.351 -0.004,-6.464 l -0.247,0.248 c 14.145,-0.045 26.523,-0.085 35.401,-0.113 4.422,-0.03 7.97,-0.054 10.449,-0.071 1.205,-0.013 2.15,-0.024 2.825,-0.032 0.304,-0.007 0.548,-0.012 0.739,-0.016 0.168,-0.005 0.257,-0.011 0.262,-0.016 0.005,-0.005 -0.073,-0.011 -0.23,-0.016 -0.184,-0.004 -0.417,-0.009 -0.709,-0.016 -0.663,-0.008 -1.589,-0.019 -2.772,-0.032 -2.465,-0.017 -5.994,-0.041 -10.392,-0.071 -8.921,-0.028 -21.359,-0.068 -35.573,-0.113 h -0.248 v 0.248 c -0.001,2.113 -0.003,4.271 -0.004,6.464 -10e-4,1.097 -10e-4,2.203 -10e-4,3.317 0,0.556 0,1.115 0,1.676 l -0.001,0.843 v 0.422 0.211 0.106 0.053 0.026 0.014 0.006 0.004 c 0.327,0.327 0.291,0.29 0.256,0.253 -0.02,-0.02 -0.04,-0.04 10e-4,0 20.292,-0.041 38.33,-0.077 49.673,-0.099 h 0.155 l -0.001,-0.154 c -0.036,-4.152 -0.065,-7.444 -0.085,-9.734 -0.016,-1.091 -0.029,-1.942 -0.038,-2.552 -0.006,-0.266 -0.011,-0.478 -0.016,-0.647 -0.005,-0.144 -0.01,-0.214 -0.015,-0.209"
       style="fill:#dadbd8;fill-opacity:1;fill-rule:nonzero;stroke:none;stroke-width:0.1"
       id="path14" />
    <path
       d="m 236.728,337.188 c -0.005,0.006 -0.01,0.086 -0.015,0.239 -0.005,0.176 -0.01,0.398 -0.016,0.674 -0.009,0.619 -0.022,1.481 -0.038,2.587 -0.02,2.268 -0.049,5.53 -0.085,9.642 l 0.154,-0.154 c -11.343,-0.022 -29.381,-0.058 -49.673,-0.099 0.112,0.113 -0.256,-0.252 0.25,0.253 v -0.003 -0.007 -0.013 -0.027 -0.052 -0.106 -0.212 -0.422 -0.842 c 0,-0.561 -0.001,-1.12 -0.001,-1.677 0,-1.114 0,-2.22 -0.001,-3.316 -0.001,-2.194 -0.003,-4.351 -0.004,-6.464 l -0.247,0.247 c 14.145,-0.045 26.523,-0.084 35.401,-0.112 4.422,-0.03 7.97,-0.054 10.449,-0.071 1.205,-0.014 2.15,-0.025 2.825,-0.033 0.304,-0.006 0.548,-0.011 0.739,-0.015 0.168,-0.006 0.257,-0.011 0.262,-0.017 0.005,-0.005 -0.072,-0.01 -0.23,-0.016 -0.184,-0.004 -0.417,-0.009 -0.709,-0.015 -0.663,-0.008 -1.589,-0.019 -2.772,-0.033 -2.465,-0.017 -5.994,-0.041 -10.392,-0.07 -8.921,-0.029 -21.359,-0.068 -35.573,-0.113 l -0.248,-10e-4 v 0.249 c -0.001,2.113 -0.003,4.27 -0.004,6.464 -0.001,1.096 -0.001,2.202 -0.001,3.316 0,0.557 0,1.116 0,1.677 l -0.001,0.842 v 0.422 0.212 0.106 0.052 0.027 0.013 0.007 0.003 c 0.507,0.507 0.143,0.14 0.257,0.253 20.292,-0.04 38.33,-0.076 49.673,-0.099 h 0.155 l -0.001,-0.154 c -0.036,-4.151 -0.065,-7.444 -0.085,-9.734 -0.016,-1.091 -0.028,-1.941 -0.037,-2.552 -0.007,-0.265 -0.012,-0.478 -0.017,-0.647 -0.005,-0.143 -0.01,-0.214 -0.015,-0.209"
       style="fill:#dadbd8;fill-opacity:1;fill-rule:nonzero;stroke:none;stroke-width:0.1"
       id="path18" />
    <path
       d="m 243.463,350.33 c -0.006,0.007 -0.012,0.091 -0.019,0.25 -0.005,0.189 -0.011,0.418 -0.019,0.697 -0.011,0.647 -0.026,1.526 -0.046,2.635 -0.023,2.304 -0.057,5.558 -0.098,9.56 l 0.182,-0.182 c -7.732,-0.018 -18.251,-0.043 -29.845,-0.071 -0.227,-0.226 0.306,0.308 0.251,0.252 v -0.003 -0.007 -0.014 -0.027 -0.054 -0.108 -0.216 -0.431 -0.859 c 0,-0.572 -0.001,-1.14 -0.001,-1.705 0,-1.129 -0.001,-2.245 -0.002,-3.345 -0.003,-2.198 -0.006,-4.329 -0.009,-6.372 l -0.241,0.241 c 8.617,-0.046 16.035,-0.086 21.351,-0.114 2.622,-0.028 4.724,-0.051 6.22,-0.067 0.699,-0.012 1.255,-0.022 1.677,-0.03 0.385,-0.01 0.589,-0.02 0.599,-0.03 0.01,-0.01 -0.175,-0.019 -0.541,-0.029 -0.41,-0.008 -0.95,-0.018 -1.628,-0.031 -1.482,-0.016 -3.565,-0.038 -6.164,-0.066 -5.357,-0.029 -12.832,-0.068 -21.514,-0.115 l -0.241,-10e-4 v 0.242 c -0.003,2.043 -0.006,4.174 -0.009,6.372 -0.001,1.1 -0.001,2.216 -0.002,3.345 -0.001,0.565 -0.001,1.133 -0.001,1.705 v 0.859 0.431 0.216 0.108 0.054 0.027 0.014 0.007 0.003 c -0.056,-0.053 0.48,0.481 0.255,0.254 11.594,-0.027 22.113,-0.052 29.845,-0.071 h 0.184 l -0.002,-0.182 c -0.041,-4.048 -0.074,-7.34 -0.098,-9.671 -0.019,-1.092 -0.034,-1.957 -0.045,-2.594 -0.014,-0.588 -0.026,-0.889 -0.039,-0.877"
       style="fill:#dadbd8;fill-opacity:1;fill-rule:nonzero;stroke:none;stroke-width:0.1"
       id="path20" />
    <path
       d="M 59.3754,142.329 H 14.1238 V 154.3 h 45.2516 v -11.971"
       style="fill:#e7e8e5;fill-opacity:1;fill-rule:nonzero;stroke:none;stroke-width:0.1"
       id="path22" />
    <path
       d="m 341.622,188.67 h -45.251 v 11.971 h 45.251 V 188.67"
       style="fill:#e7e8e5;fill-opacity:1;fill-rule:nonzero;stroke:none;stroke-width:0.1"
       id="path24" />
    <path
       d="m 422.546,323.958 h -67.072 v 101.34 h 67.072 v -101.34"
       style="fill:#ffffff;fill-opacity:1;fill-rule:nonzero;stroke:none;stroke-width:0.1"
       id="path40" />
    <path
       d="m 422.888,324.284 c 3.331,-5.297 7.264,-10.216 11.698,-14.63"
       style="fill:#ffffff;fill-opacity:1;fill-rule:nonzero;stroke:none;stroke-width:0.1"
       id="path46" />
    <path
       d="m 344.373,310.049 c 3.897,4.808 7.794,9.616 11.69,14.423"
       style="fill:#ffffff;fill-opacity:1;fill-rule:nonzero;stroke:none;stroke-width:0.1"
       id="path50" />
    <path
       d="M 437.702,251.216 H 392.45 v 11.971 h 45.252 v -11.971"
       style="fill:#e7e8e5;fill-opacity:1;fill-rule:nonzero;stroke:none;stroke-width:0.1"
       id="path58" />
    <path
       d="m 418.567,238.607 c -0.005,0.004 -0.009,0.078 -0.014,0.217 -0.004,0.16 -0.009,0.362 -0.015,0.614 -0.008,0.563 -0.019,1.349 -0.034,2.356 -0.018,2.067 -0.044,5.038 -0.077,8.784 l 0.14,-0.14 c -10.332,-0.021 -26.764,-0.054 -45.248,-0.091 0.101,0.103 -0.233,-0.23 0.227,0.23 v -0.003 -0.006 -0.012 -0.024 -0.048 -0.096 -0.193 -0.384 -0.768 c 0,-0.511 0,-1.02 0,-1.527 0,-1.015 -10e-4,-2.022 -10e-4,-3.021 -0.001,-1.998 -0.003,-3.963 -0.004,-5.888 l -0.225,0.225 c 12.885,-0.041 24.16,-0.077 32.247,-0.102 4.028,-0.027 7.261,-0.049 9.519,-0.065 1.098,-0.012 1.958,-0.022 2.573,-0.029 0.278,-0.006 0.499,-0.011 0.674,-0.015 0.153,-0.005 0.233,-0.009 0.238,-0.014 0.005,-0.005 -0.066,-0.01 -0.209,-0.015 -0.168,-0.004 -0.38,-0.009 -0.646,-0.014 -0.604,-0.008 -1.448,-0.018 -2.525,-0.03 -2.246,-0.015 -5.46,-0.037 -9.467,-0.064 -8.126,-0.026 -19.456,-0.062 -32.404,-0.103 l -0.226,-0.001 v 0.227 c -10e-4,1.925 -0.002,3.89 -0.004,5.888 0,0.999 0,2.006 0,3.021 -0.001,0.507 -0.001,1.016 -0.001,1.527 v 0.768 0.384 0.193 0.096 0.048 0.024 0.012 0.006 0.003 c 0.461,0.462 0.13,0.128 0.234,0.231 18.484,-0.037 34.916,-0.069 45.248,-0.09 h 0.142 l -0.002,-0.14 c -0.033,-3.782 -0.059,-6.781 -0.077,-8.867 -0.015,-0.994 -0.026,-1.769 -0.034,-2.325 -0.006,-0.242 -0.011,-0.435 -0.015,-0.589 -0.005,-0.131 -0.009,-0.195 -0.014,-0.19"
       style="fill:#dadbd8;fill-opacity:1;fill-rule:nonzero;stroke:none;stroke-width:0.1"
       id="path60" />
    <path
       d="M 455.768,0.260156 C 455.768,0.116016 353.732,0 227.895,0 102.013,0 0,0.116016 0,0.260156 c 0,0.14375 102.013,0.259766 227.895,0.259766 125.837,0 227.873,-0.116016 227.873,-0.259766"
       style="fill:#17282f;fill-opacity:1;fill-rule:nonzero;stroke:none;stroke-width:0.1"
       id="path62" />
    <path
       d="m 314.801,425.086 c -0.158,0 -0.318,0.009 -0.481,0.026 -2.227,0.234 -4.444,1.527 -6.411,3.738 -0.894,1.005 -2.17,1.581 -3.501,1.581 H 238.14 c -1.467,0 -2.881,-0.567 -3.982,-1.597 -1.771,-1.658 -4.5,-3.634 -7.438,-3.634 -3.725,0 -6.401,3.322 -7.402,6.614 l 3.155,0.959 c 0.523,-1.718 2.085,-4.275 4.247,-4.275 1.452,0 3.294,0.975 5.185,2.744 1.714,1.604 3.929,2.487 6.235,2.487 h 66.268 c 2.271,0 4.445,-0.979 5.964,-2.686 0.985,-1.107 2.53,-2.466 4.294,-2.652 1.76,-0.183 3.891,3.968 4.74,7.037 l 3.18,-0.876 c -0.273,-0.995 -2.753,-9.466 -7.785,-9.466"
       style="fill:#dadbd8;fill-opacity:1;fill-rule:nonzero;stroke:none;stroke-width:0.1"
       id="path110" />
    <path
       d="m 265.453,17.6141 h 8.608 V 452.475 h -8.608 V 17.6141"
       style="fill:#dadbd8;fill-opacity:1;fill-rule:nonzero;stroke:none;stroke-width:0.1"
       id="path112" />
    <path
       d="m 235.131,12.3699 h 66.679 c 0,2.8961 -2.348,5.2442 -5.245,5.2442 h -56.189 c -2.897,0 -5.245,-2.3481 -5.245,-5.2442"
       style="fill:#dadbd8;fill-opacity:1;fill-rule:nonzero;stroke:none;stroke-width:0.1"
       id="path114" />
    <path
       d="m 290.292,7.53789 c 0,-4.1168 3.338,-7.4546869 7.455,-7.4546869 4.117,0 7.454,3.3378869 7.454,7.4546869 0,4.11721 -3.337,7.45431 -7.454,7.45431 -4.117,0 -7.455,-3.3371 -7.455,-7.45431"
       style="fill:#17282f;fill-opacity:1;fill-rule:nonzero;stroke:none;stroke-width:0.1"
       id="path116" />
    <path
       d="m 228.259,7.53789 c 0,-4.1168 3.337,-7.4546869 7.454,-7.4546869 4.117,0 7.455,3.3378869 7.455,7.4546869 0,4.11721 -3.338,7.45431 -7.455,7.45431 -4.117,0 -7.454,-3.3371 -7.454,-7.45431"
       style="fill:#17282f;fill-opacity:1;fill-rule:nonzero;stroke:none;stroke-width:0.1"
       id="path118" />
    <path
       d="m 261.016,7.49102 c 0,-4.11719 3.337,-7.4550825 7.454,-7.4550825 4.117,0 7.455,3.3378925 7.455,7.4550825 0,4.11718 -3.338,7.45508 -7.455,7.45508 -4.117,0 -7.454,-3.3379 -7.454,-7.45508"
       style="fill:#17282f;fill-opacity:1;fill-rule:nonzero;stroke:none;stroke-width:0.1"
       id="path120" />
    <path
       d="m 271.269,431.269 c 0,0.158 7.608,0.286 16.991,0.286 9.387,0 16.993,-0.128 16.993,-0.286 0,-0.158 -7.606,-0.287 -16.993,-0.287 -9.383,0 -16.991,0.129 -16.991,0.287"
       style="fill:#17282f;fill-opacity:1;fill-rule:nonzero;stroke:none;stroke-width:0.1"
       id="path122" />
    <path
       d="m 271.423,431.345 c -0.085,-0.136 -0.626,0.203 -0.537,0.903 0.125,0.694 0.742,0.857 0.783,0.7 0.07,-0.14 -0.171,-0.423 -0.217,-0.787 -0.065,-0.361 0.08,-0.703 -0.029,-0.816"
       style="fill:#17282f;fill-opacity:1;fill-rule:nonzero;stroke:none;stroke-width:0.1"
       id="path124" />
    <path
       d="m 265.379,408.821 c -0.158,0 -0.286,7.523 -0.286,16.8 0,9.281 0.128,16.802 0.286,16.802 0.158,0 0.287,-7.521 0.287,-16.802 0,-9.277 -0.129,-16.8 -0.287,-16.8"
       style="fill:#17282f;fill-opacity:1;fill-rule:nonzero;stroke:none;stroke-width:0.1"
       id="path126" />
    <path
       d="m 284.512,329.885 h 24.932 v 13.646 c 0,3.766 -3.064,6.83 -6.83,6.83 h -11.273 c -3.765,0 -6.829,-3.064 -6.829,-6.83 z m 29.329,-4.398 h -33.727 v 18.044 c 0,6.191 5.036,11.227 11.227,11.227 h 11.273 c 6.19,0 11.227,-5.036 11.227,-11.227 v -18.044"
       style="fill:#dadbd8;fill-opacity:1;fill-rule:nonzero;stroke:none;stroke-width:0.1"
       id="path128" />
    <path
       d="m 269.79,263.375 h 55.16 v 68.311 h -55.16 v -68.311"
       style="fill:#dadbd8;fill-opacity:1;fill-rule:nonzero;stroke:none;stroke-width:0.1"
       id="path130" />
    <path
       d="m 285.978,263.989 h 38.972 v 67.697 h -38.972 v -67.697"
       style="fill:#f3f2f1;fill-opacity:1;fill-rule:nonzero;stroke:none;stroke-width:0.1"
       id="path132" />
    <path
       d="m 290.929,295.976 h 29.106 v 29.107 h -29.106 v -29.107"
       style="fill:#ffffff;fill-opacity:1;fill-rule:nonzero;stroke:none;stroke-width:0.1"
       id="path134" />
    <path
       d="m 290.929,295.976 c -0.01,-0.009 -0.019,0.164 -0.028,0.508 -0.007,0.385 -0.017,0.893 -0.029,1.534 -0.015,1.403 -0.037,3.385 -0.065,5.886 -0.03,5.157 -0.074,12.448 -0.126,21.179 l -10e-4,0.247 h 0.249 c 8.469,0.012 18.452,0.025 29.103,0.039 -0.058,0.063 0.545,-0.545 0.289,-0.291 v -0.008 -0.016 -0.031 -0.062 -0.125 -0.25 -0.498 -0.993 c 0,-0.661 0,-1.319 0,-1.974 -0.001,-1.309 -0.002,-2.607 -0.002,-3.891 -0.003,-2.567 -0.005,-5.08 -0.008,-7.524 -0.01,-4.885 -0.019,-9.496 -0.028,-13.73 l -0.001,-0.249 -0.247,0.002 c -8.732,0.052 -16.023,0.095 -21.18,0.126 -2.501,0.027 -4.482,0.049 -5.885,0.065 -0.641,0.012 -1.149,0.021 -1.534,0.028 -0.344,0.01 -0.517,0.019 -0.507,0.028 0.009,0.01 0.2,0.019 0.561,0.028 0.397,0.008 0.921,0.017 1.582,0.029 1.416,0.015 3.417,0.037 5.941,0.065 5.119,0.031 12.355,0.074 21.022,0.126 l -0.247,-0.248 c -0.009,4.234 -0.019,8.845 -0.029,13.73 -0.002,2.444 -0.005,4.957 -0.007,7.524 -0.001,1.284 -0.002,2.582 -0.002,3.891 -10e-4,0.655 -10e-4,1.313 -10e-4,1.974 v 0.993 0.498 0.25 0.125 0.062 0.031 0.016 0.008 c -0.256,0.258 0.349,-0.343 0.283,-0.281 -10.651,0.014 -20.634,0.027 -29.103,0.038 l 0.247,0.248 c -0.052,-8.666 -0.095,-15.902 -0.126,-21.021 -0.027,-2.525 -0.049,-4.525 -0.065,-5.942 -0.012,-0.661 -0.021,-1.185 -0.028,-1.582 -0.01,-0.361 -0.019,-0.552 -0.028,-0.562"
       style="fill:#17282f;fill-opacity:1;fill-rule:nonzero;stroke:none;stroke-width:0.1"
       id="path136" />
    <path
       d="m 270.736,331.686 c 0,0.159 12.104,0.287 27.03,0.287 14.932,0 27.032,-0.128 27.032,-0.287 0,-0.158 -12.1,-0.286 -27.032,-0.286 -14.926,0 -27.03,0.128 -27.03,0.286"
       style="fill:#17282f;fill-opacity:1;fill-rule:nonzero;stroke:none;stroke-width:0.1"
       id="path138" />
    <path
       d="m 269.784,263.375 c -0.159,0 -0.287,15.179 -0.287,33.897 0,18.726 0.128,33.901 0.287,33.901 0.158,0 0.286,-15.175 0.286,-33.901 0,-18.718 -0.128,-33.897 -0.286,-33.897"
       style="fill:#17282f;fill-opacity:1;fill-rule:nonzero;stroke:none;stroke-width:0.1"
       id="path140" />
    <path
       d="m 285.978,263.375 c -0.158,0 -0.286,15.179 -0.286,33.897 0,18.726 0.128,33.901 0.286,33.901 0.159,0 0.287,-15.175 0.287,-33.901 0,-18.718 -0.128,-33.897 -0.287,-33.897"
       style="fill:#17282f;fill-opacity:1;fill-rule:nonzero;stroke:none;stroke-width:0.1"
       id="path142" />
    <path
       d="m 315.57,285.849 h 4.465 v 4.465 h -4.465 v -4.465"
       style="fill:#33535f;fill-opacity:1;fill-rule:nonzero;stroke:none;stroke-width:0.1"
       id="path144" />
    <path
       d="m 309.41,285.849 h 4.465 v 4.465 h -4.465 v -4.465"
       style="fill:#33535f;fill-opacity:1;fill-rule:nonzero;stroke:none;stroke-width:0.1"
       id="path146" />
    <path
       d="m 303.25,285.849 h 4.464 v 4.465 h -4.464 v -4.465"
       style="fill:#33535f;fill-opacity:1;fill-rule:nonzero;stroke:none;stroke-width:0.1"
       id="path148" />
    <path
       d="m 297.089,285.849 h 4.465 v 4.465 h -4.465 v -4.465"
       style="fill:#33535f;fill-opacity:1;fill-rule:nonzero;stroke:none;stroke-width:0.1"
       id="path150" />
    <path
       d="m 290.929,285.849 h 4.465 v 4.465 h -4.465 v -4.465"
       style="fill:#33535f;fill-opacity:1;fill-rule:nonzero;stroke:none;stroke-width:0.1"
       id="path152" />
    <path
       d="m 315.57,279.931 h 4.465 v 4.465 h -4.465 v -4.465"
       style="fill:#33535f;fill-opacity:1;fill-rule:nonzero;stroke:none;stroke-width:0.1"
       id="path154" />
    <path
       d="m 309.41,279.931 h 4.465 v 4.465 h -4.465 v -4.465"
       style="fill:#33535f;fill-opacity:1;fill-rule:nonzero;stroke:none;stroke-width:0.1"
       id="path156" />
    <path
       d="m 303.25,279.931 h 4.464 v 4.465 h -4.464 v -4.465"
       style="fill:#33535f;fill-opacity:1;fill-rule:nonzero;stroke:none;stroke-width:0.1"
       id="path158" />
    <path
       d="m 297.089,279.931 h 4.465 v 4.465 h -4.465 v -4.465"
       style="fill:#33535f;fill-opacity:1;fill-rule:nonzero;stroke:none;stroke-width:0.1"
       id="path160" />
    <path
       d="m 290.929,279.931 h 4.465 v 4.465 h -4.465 v -4.465"
       style="fill:#33535f;fill-opacity:1;fill-rule:nonzero;stroke:none;stroke-width:0.1"
       id="path162" />
    <path
       d="m 315.57,274.014 h 4.465 v 4.465 h -4.465 v -4.465"
       style="fill:#33535f;fill-opacity:1;fill-rule:nonzero;stroke:none;stroke-width:0.1"
       id="path164" />
    <path
       d="m 309.41,274.014 h 4.465 v 4.465 h -4.465 v -4.465"
       style="fill:#33535f;fill-opacity:1;fill-rule:nonzero;stroke:none;stroke-width:0.1"
       id="path166" />
    <path
       d="m 303.25,274.014 h 4.464 v 4.465 h -4.464 v -4.465"
       style="fill:#33535f;fill-opacity:1;fill-rule:nonzero;stroke:none;stroke-width:0.1"
       id="path168" />
    <path
       d="m 290.929,274.014 h 10.625 v 4.465 h -10.625 v -4.465"
       style="fill:#f2575d;fill-opacity:1;fill-rule:nonzero;stroke:none;stroke-width:0.1"
       id="path170" />
    <path
       d="m 292.389,310.052 c -0.004,0.02 0.16,0.068 0.475,0.139 0.316,0.07 0.783,0.168 1.396,0.246 0.611,0.072 1.378,0.137 2.263,-0.004 0.873,-0.147 1.895,-0.514 2.694,-1.369 0.398,-0.422 0.692,-0.99 0.831,-1.605 0.137,-0.617 0.143,-1.263 0.127,-1.91 -0.01,-0.642 -0.058,-1.316 0.042,-1.945 0.109,-0.63 0.368,-1.278 0.811,-1.758 0.43,-0.487 1.114,-0.699 1.712,-0.417 0.593,0.265 1.019,0.911 1.314,1.594 0.554,1.417 0.922,3.02 1.107,4.648 0.227,1.639 0.02,3.241 0.191,4.874 0.131,1.607 1.119,3.277 2.727,3.676 0.797,0.198 1.634,-0.081 2.198,-0.554 0.574,-0.475 0.958,-1.08 1.236,-1.687 0.528,-1.23 0.711,-2.421 1.214,-3.356 0.476,-0.941 1.265,-1.557 2.021,-1.915 0.764,-0.361 1.503,-0.474 2.099,-0.472 1.207,0.013 1.815,0.399 1.836,0.335 0.008,-0.015 -0.135,-0.11 -0.433,-0.246 -0.3,-0.127 -0.77,-0.275 -1.397,-0.312 -0.623,-0.037 -1.409,0.047 -2.237,0.403 -0.817,0.351 -1.699,0.998 -2.246,2.016 -0.561,0.997 -0.776,2.22 -1.288,3.348 -0.264,0.555 -0.627,1.097 -1.12,1.493 -0.488,0.393 -1.136,0.593 -1.762,0.434 -0.626,-0.154 -1.193,-0.608 -1.593,-1.184 -0.412,-0.575 -0.608,-1.29 -0.699,-2.045 -0.155,-1.505 0.053,-3.185 -0.177,-4.871 -0.197,-1.688 -0.562,-3.295 -1.163,-4.809 -0.329,-0.736 -0.793,-1.5 -1.608,-1.871 -0.814,-0.392 -1.814,-0.052 -2.318,0.559 -0.535,0.597 -0.804,1.323 -0.922,2.037 -0.104,0.731 -0.038,1.398 -0.019,2.04 0.081,1.268 -0.06,2.459 -0.785,3.23 -0.69,0.779 -1.633,1.16 -2.45,1.324 -0.832,0.163 -1.581,0.135 -2.185,0.098 -1.212,-0.099 -1.886,-0.212 -1.892,-0.164"
       style="fill:#f2575d;fill-opacity:1;fill-rule:nonzero;stroke:none;stroke-width:0.1"
       id="path172" />
    <path
       d="m 219.372,432.939 c 0.435,0.757 1.728,1.082 2.262,0.944 1.232,0.002 2.4,-0.857 2.667,-1.955 0.266,-1.099 -0.392,-2.325 -1.503,-2.81 -1.112,-0.486 -2.567,-0.185 -3.346,0.686 -0.78,0.872 -0.653,2.139 -0.08,3.135 z m -14.777,-51.897 c 0.095,-1.381 0.247,-2.854 1.196,-3.934 1.346,-1.532 3.774,-1.733 5.925,-1.813 7.101,-0.264 14.203,-0.527 21.305,-0.79 2.109,-0.078 4.524,-0.044 5.915,1.406 1.001,1.041 2.617,3.729 2.736,5.11 1.119,12.963 0.786,24.815 -0.754,37.742 -0.445,3.732 -1.156,7.558 -3.337,10.741 -2.181,3.182 -4.935,5.522 -10.283,6.598 -9.99,1.491 -18.37,-1.254 -20.567,-6.636 -1.943,-4.76 -1.639,-9.222 -1.905,-14.296 -0.596,-11.369 -1.017,-22.768 -0.231,-34.128"
       style="fill:#f3f2f1;fill-opacity:1;fill-rule:nonzero;stroke:none;stroke-width:0.1"
       id="path174" />
    <path
       d="m 219.372,432.939 c 0.038,-0.022 -0.059,-0.235 -0.17,-0.627 -0.096,-0.386 -0.226,-0.992 -0.006,-1.646 0.2,-0.651 0.876,-1.247 1.773,-1.437 0.881,-0.209 1.986,0.018 2.619,0.851 0.637,0.786 0.64,1.88 0.075,2.552 -0.532,0.699 -1.357,1.023 -2.029,1.046 l -0.019,10e-4 -0.033,0.006 c -0.661,0.117 -1.326,-0.15 -1.67,-0.345 -0.367,-0.214 -0.5,-0.426 -0.54,-0.401 -0.031,0.01 0.04,0.284 0.41,0.588 0.377,0.271 0.969,0.65 1.903,0.555 l -0.051,0.007 c 0.786,0.023 1.767,-0.301 2.443,-1.134 0.336,-0.406 0.569,-0.969 0.558,-1.563 -0.004,-0.59 -0.223,-1.183 -0.602,-1.663 -0.788,-1.036 -2.174,-1.289 -3.184,-1.009 -1.041,0.245 -1.849,1.018 -2.037,1.83 -0.204,0.804 0.018,1.449 0.182,1.837 0.184,0.393 0.349,0.569 0.378,0.552"
       style="fill:#17282f;fill-opacity:1;fill-rule:nonzero;stroke:none;stroke-width:0.1"
       id="path176" />
    <path
       d="m 204.595,381.042 c -0.01,-10e-4 -0.029,0.154 -0.058,0.455 -0.027,0.329 -0.064,0.773 -0.112,1.341 -0.086,1.18 -0.194,2.921 -0.278,5.166 -0.18,4.49 -0.205,10.998 0.096,19.025 0.13,4.019 0.416,8.4 0.532,13.123 0.096,2.361 0.297,4.835 0.997,7.288 0.356,1.213 0.769,2.46 1.522,3.576 0.747,1.101 1.736,2.055 2.875,2.786 2.279,1.48 4.977,2.302 7.75,2.687 2.782,0.408 5.662,0.351 8.553,-0.005 2.888,-0.382 5.818,-1.398 8.199,-3.326 2.336,-1.945 4.145,-4.577 5.127,-7.533 1.003,-2.95 1.315,-6.011 1.644,-8.968 0.323,-2.97 0.583,-5.903 0.772,-8.79 0.376,-5.774 0.477,-11.362 0.306,-16.676 -0.081,-2.657 -0.222,-5.246 -0.405,-7.758 -0.052,-0.627 -0.102,-1.25 -0.153,-1.868 -0.016,-0.601 -0.155,-1.302 -0.4,-1.863 -0.479,-1.157 -1.103,-2.202 -1.811,-3.173 -0.356,-0.475 -0.755,-0.962 -1.276,-1.304 -0.513,-0.341 -1.083,-0.559 -1.653,-0.7 -1.147,-0.277 -2.293,-0.281 -3.393,-0.252 -2.19,0.087 -4.292,0.17 -6.3,0.25 -4.007,0.164 -7.635,0.312 -10.826,0.443 -1.592,0.068 -3.075,0.13 -4.441,0.188 -1.365,0.053 -2.63,0.157 -3.726,0.473 -1.097,0.302 -2.003,0.875 -2.538,1.585 -0.542,0.708 -0.731,1.452 -0.846,2.03 -0.196,1.175 -0.157,1.8 -0.157,1.8 0.01,0.001 0.029,-0.154 0.063,-0.454 0.037,-0.3 0.082,-0.749 0.205,-1.323 0.131,-0.566 0.337,-1.285 0.867,-1.949 0.525,-0.666 1.394,-1.198 2.465,-1.477 1.071,-0.291 2.315,-0.378 3.677,-0.415 1.367,-0.043 2.85,-0.09 4.442,-0.141 3.193,-0.106 6.822,-0.227 10.83,-0.36 2.007,-0.068 4.108,-0.139 6.297,-0.213 1.085,-0.023 2.2,-0.009 3.271,0.256 0.533,0.134 1.051,0.338 1.504,0.642 0.454,0.299 0.809,0.734 1.158,1.201 0.678,0.937 1.288,1.972 1.738,3.072 0.232,0.567 0.338,1.084 0.36,1.724 0.048,0.617 0.097,1.239 0.145,1.865 0.175,2.505 0.307,5.087 0.381,7.736 0.156,5.299 0.044,10.868 -0.339,16.624 -0.192,2.879 -0.453,5.804 -0.778,8.766 -0.33,2.96 -0.643,5.977 -1.62,8.846 -0.944,2.859 -2.705,5.408 -4.946,7.278 -2.269,1.844 -5.114,2.841 -7.919,3.214 -2.834,0.353 -5.68,0.414 -8.402,0.019 -2.718,-0.371 -5.347,-1.172 -7.537,-2.587 -1.097,-0.698 -2.034,-1.603 -2.739,-2.635 -0.702,-1.028 -1.114,-2.238 -1.466,-3.428 -0.692,-2.391 -0.902,-4.823 -1.007,-7.171 -0.136,-4.716 -0.446,-9.112 -0.601,-13.119 -0.352,-8.018 -0.388,-14.515 -0.276,-19.002 0.05,-2.244 0.122,-3.985 0.171,-5.166 0.024,-0.569 0.042,-1.015 0.056,-1.344 0.009,-0.303 0.009,-0.458 0,-0.459"
       style="fill:#17282f;fill-opacity:1;fill-rule:nonzero;stroke:none;stroke-width:0.1"
       id="path178" />
    <path
       d="m 210.707,379.857 22.388,-0.889 c 2.022,-0.08 3.743,1.332 3.871,3.176 l 0.682,28.39 h -30.497 v -27.286 c 0,-1.817 1.568,-3.312 3.556,-3.391"
       style="fill:#f2575d;fill-opacity:1;fill-rule:nonzero;stroke:none;stroke-width:0.1"
       id="path180" />
    <path
       d="m 232.659,430.037 c 0.015,0.012 0.119,-0.098 0.304,-0.322 0.186,-0.222 0.458,-0.553 0.757,-1.017 0.618,-0.911 1.399,-2.321 2.052,-4.189 0.655,-1.865 1.15,-4.177 1.444,-6.763 0.298,-2.587 0.425,-5.435 0.549,-8.424 0.229,-5.982 0.156,-11.404 -0.009,-15.32 -0.081,-1.959 -0.184,-3.543 -0.268,-4.635 -0.09,-1.093 -0.16,-1.696 -0.199,-1.694 -0.039,0.002 -0.044,0.609 -0.022,1.704 0.023,1.196 0.052,2.756 0.088,4.636 0.062,3.913 0.072,9.321 -0.156,15.288 -0.124,2.981 -0.236,5.827 -0.502,8.388 -0.263,2.563 -0.71,4.844 -1.305,6.693 -1.191,3.72 -2.849,5.588 -2.733,5.655"
       style="fill:#17282f;fill-opacity:1;fill-rule:nonzero;stroke:none;stroke-width:0.1"
       id="path182" />
    <path
       d="m 207.913,401.547 c -0.074,-0.007 -0.262,1.207 -0.434,3.183 -0.173,1.976 -0.313,4.715 -0.301,7.743 0.015,3.029 0.179,5.767 0.37,7.741 0.19,1.974 0.388,3.186 0.462,3.179 0.082,-0.008 0.025,-1.232 -0.062,-3.207 -0.088,-1.975 -0.188,-4.702 -0.203,-7.716 -0.012,-3.013 0.064,-5.74 0.134,-7.716 0.069,-1.975 0.116,-3.2 0.034,-3.207"
       style="fill:#17282f;fill-opacity:1;fill-rule:nonzero;stroke:none;stroke-width:0.1"
       id="path184" />
    <path
       d="m 211.444,379.466 c 0.003,0.078 1.466,0.092 3.829,0.051 2.362,-0.04 5.625,-0.136 9.227,-0.276 1.791,-0.078 3.499,-0.152 5.077,-0.22 1.555,-0.084 2.946,-0.089 4.072,0.168 1.127,0.243 1.954,0.722 2.447,1.13 0.497,0.413 0.691,0.729 0.731,0.702 0.027,-0.012 -0.104,-0.376 -0.582,-0.865 -0.473,-0.483 -1.322,-1.048 -2.501,-1.356 -1.175,-0.323 -2.627,-0.357 -4.187,-0.301 -1.579,0.055 -3.287,0.114 -5.079,0.176 -3.602,0.14 -6.862,0.298 -9.221,0.442 -2.359,0.143 -3.816,0.271 -3.813,0.349"
       style="fill:#17282f;fill-opacity:1;fill-rule:nonzero;stroke:none;stroke-width:0.1"
       id="path186" />
    <path
       d="m 212.064,389.521 h 19.076 v 6.369 h -19.076 v -6.369"
       style="fill:#ffffff;fill-opacity:1;fill-rule:nonzero;stroke:none;stroke-width:0.1"
       id="path188" />
    <path
       d="m 215.223,392.768 c 0,0.157 2.776,0.284 6.199,0.284 3.424,0 6.199,-0.127 6.199,-0.284 0,-0.157 -2.775,-0.284 -6.199,-0.284 -3.423,0 -6.199,0.127 -6.199,0.284"
       style="fill:#17282f;fill-opacity:1;fill-rule:nonzero;stroke:none;stroke-width:0.1"
       id="path190" />
    <path
       d="m 211.007,403.976 c 0.021,0.034 0.361,-0.135 0.96,-0.468 0.599,-0.331 1.452,-0.837 2.493,-1.481 2.082,-1.289 4.905,-3.158 7.916,-5.372 3.012,-2.215 5.639,-4.352 7.488,-5.957 0.925,-0.802 1.661,-1.466 2.156,-1.94 0.495,-0.473 0.757,-0.748 0.731,-0.778 -0.054,-0.062 -1.232,0.888 -3.143,2.409 -1.91,1.523 -4.566,3.602 -7.567,5.809 -3.002,2.206 -5.778,4.121 -7.8,5.492 -2.021,1.372 -3.277,2.216 -3.234,2.286"
       style="fill:#ffffff;fill-opacity:1;fill-rule:nonzero;stroke:none;stroke-width:0.1"
       id="path192" />
    <path
       d="m 219.319,402.814 c 0.087,0.13 2.295,-1.212 4.929,-2.996 2.635,-1.784 4.699,-3.336 4.612,-3.466 -0.088,-0.129 -2.295,1.212 -4.93,2.997 -2.634,1.784 -4.699,3.336 -4.611,3.465"
       style="fill:#ffffff;fill-opacity:1;fill-rule:nonzero;stroke:none;stroke-width:0.1"
       id="path194" />
    <path
       d="m 220.347,429.439 c 0,0 -2.811,5.486 -3.478,10.571 l 3.264,0.375 c 0,0 2.049,-7.729 3.634,-9.885 l -3.42,-1.061"
       style="fill:#dadbd8;fill-opacity:1;fill-rule:nonzero;stroke:none;stroke-width:0.1"
       id="path196" />
    <path
       d="M 215.047,42.4371 220.032,0.6 208.721,0.487891 192.658,42.4012 l 22.389,0.0359"
       style="fill:#17282f;fill-opacity:1;fill-rule:nonzero;stroke:none;stroke-width:0.1"
       id="path198" />
    <path
       d="m 48.1758,245.882 c -0.1106,14.008 10.6785,25.725 24.7164,26.833 29.2838,2.311 76.8858,5.223 100.5638,2.067 8.877,-1.184 16.038,-7.79 17.935,-16.498 l 14.747,-67.691 62.306,-0.827 c 10e-4,0.024 19.386,0.439 24.828,-9.885 5.587,-10.598 4.727,-28.807 3.572,-38.992 -0.769,-6.782 -10.457,-99.0152 -10.457,-99.0152 L 49.7813,42.2422 48.1758,245.882"
       style="fill:#33535f;fill-opacity:1;fill-rule:nonzero;stroke:none;stroke-width:0.1"
       id="path200" />
    <path
       d="M 164.396,42.077 148.547,0.0359375 137.235,0.149219 142.181,42.127 l 22.215,-0.05"
       style="fill:#17282f;fill-opacity:1;fill-rule:nonzero;stroke:none;stroke-width:0.1"
       id="path202" />
    <path
       d="m 284.056,42.2801 3.678,-40.54924 -11.312,0.11016 -14.163,40.48708 21.797,-0.048"
       style="fill:#17282f;fill-opacity:1;fill-rule:nonzero;stroke:none;stroke-width:0.1"
       id="path204" />
    <path
       d="M 75.5488,42.4012 59.4863,0.260156 48.1746,0.371875 53.1605,42.4371 75.5488,42.4012"
       style="fill:#17282f;fill-opacity:1;fill-rule:nonzero;stroke:none;stroke-width:0.1"
       id="path206" />
    <path
       d="m 203.043,199.705 c 0.085,-0.017 4.773,-1.061 10.498,-1.064 2.13,0.001 4.407,0.146 6.66,0.559 3.37,0.624 6.732,1.841 9.349,4.235 1.303,1.194 2.396,2.688 3.141,4.471 0.747,1.784 1.146,3.842 1.145,6.164 0,0.538 -0.021,1.09 -0.064,1.657 -0.406,5.404 -1.862,9.95 -3.787,13.905 -2.893,5.933 -6.784,10.56 -9.808,15.069 -1.516,2.254 -2.82,4.47 -3.737,6.785 -0.917,2.319 -1.46,4.732 -1.462,7.476 v 0.003 l -1.585,0.002 1.585,-0.022 v 0.02 l -1.585,0.002 1.585,-0.022 v 0.012 0.014 c 0.001,3.879 0.42,6.933 1.177,9.377 0.569,1.836 1.321,3.333 2.256,4.635 1.403,1.947 3.242,3.484 5.621,4.907 2.374,1.42 5.274,2.699 8.641,4.089 2.019,0.837 3.775,2.307 5.058,4.177 1.279,1.87 2.084,4.167 2.085,6.649 0.003,2.21 -0.654,4.549 -2.098,6.743 -1.443,2.198 -3.646,4.249 -6.708,6.038 -2.785,1.626 -5.147,2.789 -7.039,3.837 -1.421,0.786 -2.568,1.504 -3.469,2.272 -0.678,0.577 -1.226,1.178 -1.699,1.896 -0.704,1.076 -1.261,2.452 -1.651,4.469 -0.387,2.012 -0.59,4.641 -0.589,8.084 0,2.531 0.107,5.5 0.319,8.99 0.353,5.827 0.972,10.267 1.695,13.834 1.086,5.353 2.399,8.74 3.514,12.077 1.116,3.325 2.016,6.654 2.008,11.31 0,1.354 -0.073,2.82 -0.229,4.437 l -3.981,-0.383 c 0.145,-1.507 0.21,-2.844 0.21,-4.054 -0.002,-2.777 -0.334,-4.882 -0.862,-6.934 -0.398,-1.539 -0.916,-3.053 -1.501,-4.758 -0.878,-2.557 -1.899,-5.529 -2.788,-9.528 -0.891,-4.001 -1.651,-9.026 -2.059,-15.759 -0.215,-3.545 -0.326,-6.588 -0.326,-9.232 0.002,-4.262 0.285,-7.488 0.943,-10.116 0.494,-1.968 1.218,-3.606 2.191,-4.981 0.727,-1.03 1.584,-1.9 2.525,-2.657 1.415,-1.138 3.004,-2.038 4.779,-2.993 1.778,-0.953 3.754,-1.959 5.991,-3.265 2.638,-1.542 4.342,-3.194 5.382,-4.779 1.038,-1.589 1.438,-3.112 1.442,-4.548 0,-1.607 -0.524,-3.129 -1.387,-4.391 -0.859,-1.261 -2.056,-2.235 -3.283,-2.739 -3.034,-1.254 -5.789,-2.448 -8.254,-3.825 -1.849,-1.033 -3.536,-2.172 -5.029,-3.525 -2.241,-2.023 -4.016,-4.547 -5.166,-7.715 -1.156,-3.171 -1.716,-6.957 -1.719,-11.637 l 2,-0.001 -2,0.027 v -0.037 c -0.004,-4.381 1.194,-8.173 2.938,-11.581 2.625,-5.119 6.396,-9.471 9.552,-14.377 3.164,-4.912 5.758,-10.292 6.315,-17.578 0.036,-0.471 0.053,-0.923 0.053,-1.356 -0.004,-2.497 -0.554,-4.337 -1.424,-5.781 -0.656,-1.082 -1.507,-1.959 -2.54,-2.693 -1.546,-1.098 -3.518,-1.855 -5.671,-2.318 -2.152,-0.464 -4.471,-0.637 -6.66,-0.637 -2.618,0 -5.05,0.244 -6.814,0.489 -0.882,0.123 -1.597,0.245 -2.086,0.335 -0.245,0.045 -0.433,0.083 -0.558,0.108 l -0.138,0.029 -0.037,0.008 -0.865,-3.906"
       style="fill:#dadbd8;fill-opacity:1;fill-rule:nonzero;stroke:none;stroke-width:0.1"
       id="path208" />
    <path
       d="m 204.297,200.989 c 0.021,-0.004 4.341,-0.966 9.592,-0.967 4.01,0.003 8.57,0.555 12.192,2.588 1.81,1.017 3.384,2.414 4.497,4.294 1.114,1.879 1.76,4.229 1.76,7.12 0,0.513 -0.021,1.043 -0.062,1.59 -0.783,10.408 -5.565,17.348 -10.073,23.619 -2.256,3.138 -4.445,6.117 -6.06,9.284 -1.616,3.169 -2.664,6.518 -2.665,10.445 v 0.004 0.002 0.004 c 0.008,7.978 1.7,12.786 4.82,16.255 3.123,3.475 7.781,5.654 13.803,8.138 3.436,1.426 6.207,5.129 6.215,9.44 0.005,3.85 -2.257,8.104 -8.063,11.485 -2.735,1.598 -5.068,2.746 -7.009,3.821 -2.919,1.618 -4.908,3.036 -6.22,5.554 -1.315,2.523 -1.963,6.253 -1.961,12.479 0,2.573 0.109,5.571 0.322,9.081 0.715,11.776 2.502,18.041 4.118,22.871 1.615,4.822 3.098,8.292 3.096,14.259 0,1.3 -0.07,2.717 -0.222,4.293 l -0.995,-0.096 c 0.149,-1.548 0.217,-2.933 0.217,-4.197 -0.002,-5.79 -1.41,-9.059 -3.044,-13.941 -1.633,-4.875 -3.452,-11.28 -4.169,-23.129 -0.213,-3.524 -0.323,-6.539 -0.323,-9.141 0,-4.194 0.285,-7.312 0.898,-9.75 0.91,-3.659 2.625,-5.788 5.09,-7.502 2.463,-1.722 5.646,-3.097 9.698,-5.465 5.594,-3.278 7.561,-7.179 7.567,-10.622 0.008,-3.868 -2.542,-7.26 -5.597,-8.516 -6.033,-2.495 -10.836,-4.704 -14.164,-8.392 -3.33,-3.693 -5.078,-8.823 -5.077,-16.925 h 0.5 l -0.5,0.007 v -0.017 c -0.001,-4.109 1.107,-7.635 2.774,-10.899 2.503,-4.899 6.243,-9.234 9.476,-14.245 3.236,-5.014 5.976,-10.683 6.551,-18.279 0.039,-0.524 0.059,-1.029 0.059,-1.515 -0.001,-2.745 -0.608,-4.901 -1.62,-6.61 -1.518,-2.561 -3.976,-4.155 -6.826,-5.118 -2.846,-0.962 -6.065,-1.275 -9.003,-1.274 -2.565,0 -4.914,0.236 -6.62,0.473 -0.852,0.118 -1.544,0.236 -2.021,0.325 -0.238,0.044 -0.423,0.081 -0.548,0.106 -0.125,0.026 -0.186,0.039 -0.186,0.039 l -0.217,-0.976"
       style="fill:#f2575d;fill-opacity:1;fill-rule:nonzero;stroke:none;stroke-width:0.1"
       id="path210" />
    <path
       d="m 170.605,107.771 c 0.041,-0.121 6.647,1.975 14.754,4.683 8.109,2.708 14.648,5.002 14.607,5.124 -0.04,0.122 -6.645,-1.974 -14.754,-4.683 -8.107,-2.708 -14.647,-5.002 -14.607,-5.124"
       style="fill:#33535f;fill-opacity:1;fill-rule:nonzero;stroke:none;stroke-width:0.1"
       id="path212" />
    <path
       d="m 142.222,148.111 24.879,3.377 c 0,0 47.731,7.321 73.979,10.573 7.372,0.914 14.497,0.327 16.122,0 9.642,-1.936 15.771,-18.309 17.048,-32.928 0.642,-7.344 1.643,-100.542 1.643,-100.542 l -21.027,0.0539 -10.319,55.9371 -3.467,35.884 -40.167,-10.28 -52.613,0.187 c -6.506,5.083 -6.078,37.738 -6.078,37.738"
       style="fill:#f9a78d;fill-opacity:1;fill-rule:nonzero;stroke:none;stroke-width:0.1"
       id="path214" />
    <path
       d="m 241.104,134.749 c -0.029,-0.001 -0.039,-0.481 0.009,-1.347 0.052,-0.865 0.162,-2.114 0.331,-3.652 0.334,-3.076 0.887,-7.313 1.559,-11.984 0.675,-4.672 1.338,-8.893 1.853,-11.942 0.258,-1.525 0.48,-2.757 0.646,-3.606 0.168,-0.85 0.28,-1.315 0.312,-1.31 0.032,0.006 -0.019,0.482 -0.131,1.339 -0.129,0.943 -0.296,2.163 -0.497,3.628 -0.451,3.145 -1.052,7.331 -1.716,11.959 -0.656,4.626 -1.249,8.811 -1.695,11.957 -0.194,1.465 -0.355,2.684 -0.479,3.627 -0.104,0.857 -0.155,1.332 -0.192,1.331"
       style="fill:#33535f;fill-opacity:1;fill-rule:nonzero;stroke:none;stroke-width:0.1"
       id="path216" />
    <path
       d="m 234.861,130.83 c -0.053,-0.015 0.068,-0.705 0.482,-1.755 0.412,-1.049 1.16,-2.441 2.27,-3.768 1.114,-1.324 2.354,-2.304 3.314,-2.892 0.962,-0.591 1.621,-0.83 1.644,-0.781 0.084,0.13 -2.441,1.371 -4.596,3.977 -2.189,2.576 -2.972,5.278 -3.114,5.219"
       style="fill:#33535f;fill-opacity:1;fill-rule:nonzero;stroke:none;stroke-width:0.1"
       id="path218" />
    <path
       d="m 252.135,44.6148 3.218,-18.8187 -1.38,-8.3781 -0.425,-9.52698 c -0.133,-2.97383 2.069,-5.49805 4.918,-5.63711 l 50.239,-1.429691 c 0.706,-0.021094 1.373,0.375001 1.688,1.035941 0.728,1.53203 1.509,4.3707 -1.444,6.18203 C 305.448,10.1891 275.893,28.591 275.893,28.591 l -0.416,17.2352 -23.342,-1.2114"
       style="fill:#f9a78d;fill-opacity:1;fill-rule:nonzero;stroke:none;stroke-width:0.1"
       id="path220" />
    <path
       d="m 277.014,0.260156 c 0,0 -0.885,14.657844 9.099,21.230844 l 0.827,0.3309 c 0,0 22.388,-13.04885 23.992,-15.01174 2.822,-3.4543 0.735,-6.290238 0.735,-6.290238 L 277.014,0.260156"
       style="fill:#f2575d;fill-opacity:1;fill-rule:nonzero;stroke:none;stroke-width:0.1"
       id="path222" />
    <path
       d="m 250.119,1.38516 h 28.21 v 1.9707 h -28.21 v -1.9707"
       style="fill:#f2575d;fill-opacity:1;fill-rule:nonzero;stroke:none;stroke-width:0.1"
       id="path224" />
    <path
       d="m 182.398,193.955 c 0,0 3.595,-18.378 11.063,-21.365 7.469,-2.987 51.778,-2.376 51.778,-2.376 l 1.921,13.086 -40.878,9.756 -4.205,18.868 -21.543,-1.486 1.864,-16.483"
       style="fill:#f9a78d;fill-opacity:1;fill-rule:nonzero;stroke:none;stroke-width:0.1"
       id="path226" />
    <path
       d="m 238.277,183.647 c 0,0 4.381,1.624 9.078,2.205 4.696,0.58 14.065,-0.356 14.734,-0.499 0.669,-0.142 9.388,-5.348 9.388,-5.348 l 5.673,-7.274 c 0,0 -0.989,-2.696 -3.377,0.024 -2.389,2.72 -4.314,4.34 -4.314,4.34 l -6.295,2.468 5.408,-4.333 4.828,-10.392 c 0,0 -1.886,-2.093 -3.691,-0.003 -1.804,2.091 -5.001,5.899 -5.001,5.899 l 2.724,-7.278 c 0,0 -1.196,-1.895 -2.725,-0.463 -1.528,1.431 -2.457,2.577 -2.457,2.577 0,0 -0.813,-2.329 -2.277,-0.451 -1.463,1.879 -3.18,3.224 -3.18,3.224 l -6.039,2.17 c 0,0 -6.427,-0.813 -9.327,0.215 -2.899,1.028 -3.15,12.919 -3.15,12.919"
       style="fill:#f9a78d;fill-opacity:1;fill-rule:nonzero;stroke:none;stroke-width:0.1"
       id="path228" />
    <path
       d="m 200.179,186.259 c -0.13,0.004 0.379,2.296 2.352,4.276 1.951,2.003 4.235,2.545 4.241,2.416 0.065,-0.15 -2.027,-0.881 -3.87,-2.781 -1.872,-1.871 -2.572,-3.974 -2.723,-3.911"
       style="fill:#f57f62;fill-opacity:1;fill-rule:nonzero;stroke:none;stroke-width:0.1"
       id="path230" />
    <path
       d="m 242.552,179.72 c 1.395,-2.656 4.386,-4.39 7.384,-4.282 1.658,0.06 3.322,0.631 4.945,0.291 2.259,-0.474 3.79,-2.552 5.822,-3.646 0.932,-0.501 2.303,-0.684 2.868,0.211 0.378,0.599 0.182,1.385 -0.074,2.046 -1.535,3.964 -4.928,7.163 -8.976,8.463"
       style="fill:#f9a78d;fill-opacity:1;fill-rule:nonzero;stroke:none;stroke-width:0.1"
       id="path232" />
    <path
       d="m 254.521,182.803 c 0.005,0.017 0.139,-0.012 0.39,-0.082 0.253,-0.064 0.615,-0.193 1.077,-0.375 0.916,-0.373 2.206,-1.047 3.579,-2.186 1.365,-1.137 2.795,-2.778 3.808,-4.923 0.232,-0.542 0.511,-1.083 0.621,-1.742 0.051,-0.324 0.061,-0.685 -0.066,-1.035 -0.122,-0.348 -0.383,-0.659 -0.721,-0.833 -0.685,-0.346 -1.434,-0.231 -2.084,-0.012 -0.671,0.245 -1.222,0.637 -1.776,1.037 -1.095,0.81 -2.048,1.715 -3.126,2.297 -1.067,0.616 -2.25,0.733 -3.388,0.592 -1.135,-0.116 -2.239,-0.36 -3.311,-0.318 -1.066,0.023 -2.037,0.285 -2.867,0.623 -1.669,0.697 -2.739,1.756 -3.337,2.541 -0.304,0.396 -0.499,0.731 -0.616,0.964 -0.115,0.235 -0.168,0.361 -0.152,0.369 0.043,0.025 0.293,-0.465 0.925,-1.205 0.63,-0.726 1.703,-1.703 3.317,-2.328 0.803,-0.301 1.732,-0.529 2.738,-0.532 1.006,-0.023 2.078,0.227 3.253,0.363 0.587,0.066 1.208,0.095 1.843,0.008 0.634,-0.096 1.261,-0.316 1.837,-0.628 1.162,-0.623 2.13,-1.544 3.193,-2.327 0.528,-0.384 1.079,-0.765 1.641,-0.967 0.563,-0.201 1.21,-0.268 1.671,-0.026 0.475,0.232 0.636,0.795 0.535,1.34 -0.083,0.55 -0.345,1.092 -0.565,1.617 -0.956,2.083 -2.312,3.701 -3.613,4.846 -2.645,2.301 -4.87,2.807 -4.806,2.922"
       style="fill:#f57f62;fill-opacity:1;fill-rule:nonzero;stroke:none;stroke-width:0.1"
       id="path234" />
    <path
       d="m 195.25,200.329 8.518,4.008 1.181,-5.298 -8.305,-4.035 -1.394,5.325"
       style="fill:#dadbd8;fill-opacity:1;fill-rule:nonzero;stroke:none;stroke-width:0.1"
       id="path236" />
    <path
       d="m 115.388,148.314 19.556,6.267 c 0,0 50.179,5.07 76.426,8.322 7.372,0.913 12.651,-0.024 14.275,-0.35 9.642,-1.937 12.883,-13.517 14.538,-20.7 1.654,-7.184 4.414,-115.055 4.414,-115.055 L 222.106,25.3 210.677,68.6262 c -2.918,9.9199 -4.764,20.1238 -5.509,30.4367 l -1.233,17.0731 -33.584,-6.515 -47.525,0.358 c -6.506,5.082 -7.438,38.335 -7.438,38.335"
       style="fill:#f9a78d;fill-opacity:1;fill-rule:nonzero;stroke:none;stroke-width:0.1"
       id="path238" />
    <path
       d="m 201.569,133.051 c -0.029,0 -0.039,-0.481 0.009,-1.347 0.052,-0.865 0.162,-2.113 0.33,-3.651 0.335,-3.077 0.888,-7.314 1.56,-11.984 0.674,-4.672 1.338,-8.893 1.853,-11.943 0.257,-1.525 0.479,-2.757 0.646,-3.606 0.168,-0.8489 0.28,-1.3149 0.311,-1.3098 0.033,0.0058 -0.018,0.482 -0.13,1.3388 -0.129,0.944 -0.296,2.163 -0.497,3.628 -0.452,3.146 -1.052,7.331 -1.716,11.959 -0.656,4.626 -1.249,8.812 -1.695,11.957 -0.194,1.465 -0.355,2.685 -0.479,3.628 -0.104,0.856 -0.156,1.332 -0.192,1.33"
       style="fill:#33535f;fill-opacity:1;fill-rule:nonzero;stroke:none;stroke-width:0.1"
       id="path240" />
    <path
       d="m 195.325,129.132 c -0.052,-0.015 0.068,-0.705 0.483,-1.755 0.411,-1.048 1.16,-2.44 2.27,-3.767 1.113,-1.325 2.353,-2.305 3.314,-2.892 0.962,-0.592 1.621,-0.831 1.644,-0.781 0.084,0.13 -2.441,1.371 -4.597,3.976 -2.188,2.576 -2.971,5.278 -3.114,5.219"
       style="fill:#33535f;fill-opacity:1;fill-rule:nonzero;stroke:none;stroke-width:0.1"
       id="path242" />
    <path
       d="m 217.963,45.098 4.37,-20.882 -0.669,-10.316 -0.442,-6.00898 c -0.132,-2.97383 2.07,-5.49805 4.919,-5.63711 L 276.26,1.18516 c 0.707,-0.02032 1.849,0.82695 2.163,1.48789 0.728,1.53203 1.153,3.55781 -1.8,5.36914 -3.5,2.14691 -32.026,18.75581 -32.026,18.75581 l -0.94,19.1321 -25.694,-0.8321"
       style="fill:#f9a78d;fill-opacity:1;fill-rule:nonzero;stroke:none;stroke-width:0.1"
       id="path244" />
    <path
       d="m 244.597,0.487891 c 0,0 -1.397,14.733209 8.587,21.305109 l 0.827,0.332 c 0,0 22.388,-13.05 23.992,-15.01211 2.822,-3.45391 0.952,-6.852734 0.952,-6.852734 l -34.358,0.227735"
       style="fill:#f2575d;fill-opacity:1;fill-rule:nonzero;stroke:none;stroke-width:0.1"
       id="path246" />
    <path
       d="M 217.19,0.260156 H 245.4 V 3.65898 H 217.19 V 0.260156"
       style="fill:#f2575d;fill-opacity:1;fill-rule:nonzero;stroke:none;stroke-width:0.1"
       id="path248" />
    <path
       d="m 278.738,0.823047 c -0.044,0.010937 0.088,0.482813 0.183,1.346873 0.075,0.84922 0.127,2.16406 -0.544,3.54297 -0.331,0.68125 -0.846,1.35508 -1.555,1.90117 -0.711,0.54102 -1.569,1.05391 -2.439,1.61094 -1.771,1.1051 -3.702,2.3102 -5.729,3.5742 -4.02,2.5156 -7.655,4.7906 -10.405,6.5117 -1.254,0.8082 -2.304,1.484 -3.128,2.0153 -0.732,0.4859 -1.129,0.7679 -1.11,0.7988 0.019,0.0301 0.451,-0.1941 1.216,-0.6262 0.847,-0.4937 1.925,-1.1218 3.215,-1.8738 2.701,-1.6039 6.414,-3.8531 10.487,-6.384 2.035,-1.2648 3.968,-2.482 5.713,-3.61092 0.869,-0.575 1.704,-1.08711 2.451,-1.68008 0.745,-0.59805 1.286,-1.33984 1.617,-2.08008 0.672,-1.50078 0.548,-2.86797 0.412,-3.72773 -0.078,-0.43828 -0.169,-0.77031 -0.243,-0.99102 -0.076,-0.221092 -0.124,-0.333201 -0.141,-0.328123"
       style="fill:#17282f;fill-opacity:1;fill-rule:nonzero;stroke:none;stroke-width:0.1"
       id="path250" />
    <path
       d="m 197.09,162.458 -12.835,18.601 c 2.593,13.972 5.297,19.662 6.718,26.608 3.834,19.425 -3.99,40.911 -3.99,40.911 l -3.856,18.186 -16.255,4.954 -22.385,0.523 -21.482,-3.843 -6.535,-77.385 c -4.223,-24.398 -0.919,-39.035 -1.082,-42.699 l 81.702,14.144"
       style="fill:#57e2f2;fill-opacity:1;fill-rule:nonzero;stroke:none;stroke-width:0.1"
       id="path252" />
    <path
       d="m 120.817,109.71 79.121,-0.065 -0.486,-9.854 c 0,0 10.878,-6.9621 28.346,-4.7512 12.868,1.6301 29.85,6.8422 37.9,9.4732 3.032,0.991 6.301,0.913 9.284,-0.215 l 4.737,-1.791 -5.693,38.35 c 0,0 -4.374,24.526 -25.018,23.716 -20.643,-0.81 -21.093,-2.57 -21.093,-2.57 0,0 -5.336,3.417 -12.824,3.214 -7.488,-0.202 -99.881,-6.517 -99.881,-6.517 -0.45,-19.683 -0.558,-36.927 5.607,-48.99"
       style="fill:#57f2f0;fill-opacity:1;fill-rule:nonzero;stroke:none;stroke-width:0.1"
       id="path254" />
    <path
       d="m 198.963,162.818 c 0.027,-0.141 -9.535,-2.099 -21.355,-4.374 -11.824,-2.275 -21.429,-4.004 -21.456,-3.863 -0.027,0.142 9.533,2.1 21.358,4.375 11.82,2.274 21.426,4.003 21.453,3.862"
       style="fill:#17282f;fill-opacity:1;fill-rule:nonzero;stroke:none;stroke-width:0.1"
       id="path256" />
    <path
       d="m 247.035,107.705 c -0.017,-0.002 -0.069,0.203 -0.15,0.596 -0.086,0.449 -0.195,1.019 -0.329,1.723 -0.276,1.567 -0.654,3.721 -1.117,6.354 -0.903,5.432 -2.131,12.824 -3.489,20.992 -0.663,4.096 -1.411,7.985 -2.614,11.359 -1.173,3.382 -2.847,6.184 -4.609,8.229 -1.759,2.057 -3.578,3.334 -4.896,4.065 -1.326,0.73 -2.136,0.987 -2.116,1.038 0.006,0.017 0.208,-0.041 0.591,-0.168 0.383,-0.122 0.937,-0.345 1.62,-0.692 1.365,-0.684 3.252,-1.938 5.078,-4 1.829,-2.048 3.57,-4.89 4.783,-8.311 1.246,-3.412 2.013,-7.334 2.677,-11.436 1.299,-8.177 2.475,-15.578 3.339,-21.017 0.395,-2.644 0.718,-4.807 0.953,-6.381 0.095,-0.709 0.172,-1.285 0.233,-1.738 0.047,-0.399 0.064,-0.61 0.046,-0.613"
       style="fill:#17282f;fill-opacity:1;fill-rule:nonzero;stroke:none;stroke-width:0.1"
       id="path258" />
    <path
       d="m 183.127,266.764 c 0,0 7.908,-0.91 13.517,-11.924 5.608,-11.014 13.321,-42.282 13.321,-42.282 l -28.392,-2.28 1.554,56.486"
       style="fill:#44def0;fill-opacity:1;fill-rule:nonzero;stroke:none;stroke-width:0.1"
       id="path260" />
    <path
       d="m 188.995,203.004 c -0.122,0.04 0.866,2.31 1.404,6.213 0.307,1.943 0.398,4.293 0.386,6.893 -0.047,2.603 -0.292,5.46 -0.672,8.443 -0.809,5.967 -2.005,11.3 -2.854,15.159 -0.407,1.867 -0.744,3.41 -0.999,4.575 -0.226,1.083 -0.334,1.686 -0.299,1.694 0.035,0.008 0.21,-0.578 0.496,-1.647 0.284,-1.069 0.691,-2.617 1.161,-4.538 0.941,-3.841 2.198,-9.174 3.011,-15.174 0.383,-3.001 0.615,-5.88 0.636,-8.506 -0.014,-2.625 -0.145,-4.995 -0.502,-6.953 -0.081,-0.488 -0.159,-0.954 -0.233,-1.398 -0.109,-0.431 -0.213,-0.84 -0.311,-1.227 -0.186,-0.767 -0.362,-1.423 -0.577,-1.938 -0.386,-1.042 -0.614,-1.609 -0.647,-1.596"
       style="fill:#17282f;fill-opacity:1;fill-rule:nonzero;stroke:none;stroke-width:0.1"
       id="path262" />
    <path
       d="m 195.214,119.226 c 0.129,0.064 1.466,-2.38 2.985,-5.458 1.521,-3.079 2.648,-5.626 2.519,-5.69 -0.129,-0.064 -1.465,2.38 -2.986,5.459 -1.519,3.078 -2.647,5.626 -2.518,5.689"
       style="fill:#17282f;fill-opacity:1;fill-rule:nonzero;stroke:none;stroke-width:0.1"
       id="path264" />
    <path
       d="m 148.578,160.96 -3.644,10.705 8.182,4.095 c 0,0 13.675,-4.809 20.383,-13.136 -8.315,-0.55 -16.941,-1.127 -24.921,-1.664"
       style="fill:#cc4341;fill-opacity:1;fill-rule:nonzero;stroke:none;stroke-width:0.1"
       id="path266" />
    <path
       d="m 181.573,109.71 -15.576,0.082 -17.419,51.168 c 7.98,0.537 16.606,1.114 24.921,1.664 1.003,-1.245 1.85,-2.567 2.472,-3.965 -11.103,-2.146 -19.845,-3.943 -19.819,-4.078 0.001,-0.005 0.016,-0.008 0.045,-0.008 0.691,0 9.268,1.544 19.982,3.597 0.104,-0.259 0.2,-0.52 0.289,-0.784 3.851,-11.517 5.105,-47.676 5.105,-47.676"
       style="fill:#41ccc6;fill-opacity:1;fill-rule:nonzero;stroke:none;stroke-width:0.1"
       id="path268" />
    <path
       d="m 156.197,154.573 c -0.029,0 -0.044,0.003 -0.045,0.008 -0.026,0.135 8.716,1.932 19.819,4.078 0.073,-0.162 0.142,-0.325 0.208,-0.489 -10.714,-2.053 -19.291,-3.597 -19.982,-3.597"
       style="fill:#0f191d;fill-opacity:1;fill-rule:nonzero;stroke:none;stroke-width:0.1"
       id="path270" />
    <path
       d="m 247.16,99.034 -5.746,41.458 c 0.188,-1.024 0.365,-2.066 0.536,-3.122 1.358,-8.168 2.586,-15.56 3.489,-20.992 0.463,-2.633 0.841,-4.787 1.117,-6.354 0.134,-0.704 0.243,-1.274 0.329,-1.723 0.081,-0.391 0.132,-0.596 0.15,-0.596 v 0 c 0.018,0.003 0.001,0.214 -0.046,0.613 -0.061,0.453 -0.138,1.029 -0.233,1.738 -0.235,1.574 -0.558,3.737 -0.953,6.381 -0.864,5.439 -2.04,12.84 -3.339,21.017 -0.664,4.102 -1.431,8.024 -2.677,11.436 -1.213,3.421 -2.954,6.263 -4.783,8.311 -1.453,1.64 -2.944,2.769 -4.18,3.507 1.326,-0.012 8.409,-0.431 11.728,-7.886 3.671,-8.243 12.721,-51.536 12.721,-51.536 l -8.113,-2.252 m -11.7,57.022 c -0.897,1.11 -1.932,2.205 -3.124,3.252 0.774,-0.636 1.589,-1.412 2.391,-2.35 0.247,-0.286 0.491,-0.587 0.733,-0.902"
       style="fill:#41ccc6;fill-opacity:1;fill-rule:nonzero;stroke:none;stroke-width:0.1"
       id="path272" />
    <path
       d="m 247.035,107.705 c -0.018,0 -0.069,0.205 -0.15,0.596 -0.086,0.449 -0.195,1.019 -0.329,1.723 -0.276,1.567 -0.654,3.721 -1.117,6.354 -0.903,5.432 -2.131,12.824 -3.489,20.992 -0.171,1.056 -0.348,2.098 -0.536,3.122 l -0.069,0.495 c 0,0 -0.063,7.868 -5.885,15.069 -0.242,0.315 -0.486,0.616 -0.733,0.902 -0.802,0.938 -1.617,1.714 -2.391,2.35 -0.543,0.476 -1.118,0.944 -1.728,1.398 0,0 0.053,0.002 0.153,0.002 0.02,0 0.041,0 0.063,0 1.236,-0.738 2.727,-1.867 4.18,-3.507 1.829,-2.048 3.57,-4.89 4.783,-8.311 1.246,-3.412 2.013,-7.334 2.677,-11.436 1.299,-8.177 2.475,-15.578 3.339,-21.017 0.395,-2.644 0.718,-4.807 0.953,-6.381 0.095,-0.709 0.172,-1.285 0.233,-1.738 0.047,-0.399 0.064,-0.61 0.046,-0.613 v 0"
       style="fill:#0f191d;fill-opacity:1;fill-rule:nonzero;stroke:none;stroke-width:0.1"
       id="path274" />
    <path
       d="m 121.219,195.004 h -3.131 l 4.593,20.855 10.45,20.854 -4.523,-29.227 h -4.257 l -3.132,-12.482"
       style="fill:#41c6cc;fill-opacity:1;fill-rule:nonzero;stroke:none;stroke-width:0.1"
       id="path276" />
    <path
       d="m 123.991,268.575 c 0,0 -13.994,-1.091 -19.92,-16.432 -5.046,-13.065 -13.8323,-32.618 -13.8323,-32.618 l 35.2343,-9.333 c 0,0 7.346,23.659 10.047,37.711 2.342,12.192 -10.204,19.348 -11.529,20.672"
       style="fill:#57def2;fill-opacity:1;fill-rule:nonzero;stroke:none;stroke-width:0.1"
       id="path278" />
    <path
       d="m 96.4855,217.87 c 0,0 -6.4429,-19.857 -6.0472,-30.93 0.0039,-0.111 0.0082,-0.22 0.0133,-0.33 0.3656,-8.118 7.132,-14.472 15.2584,-14.472 h 61.086 l -2.705,14.736 -45.38,9.132 3.221,15.124 -25.4465,6.74"
       style="fill:#f9a78d;fill-opacity:1;fill-rule:nonzero;stroke:none;stroke-width:0.1"
       id="path280" />
    <path
       d="m 111.22,190.741 c -0.125,0.033 0.893,2.186 3.264,3.753 2.355,1.593 4.732,1.711 4.716,1.583 0.036,-0.159 -2.194,-0.499 -4.427,-2.016 -2.254,-1.483 -3.42,-3.414 -3.553,-3.32"
       style="fill:#f57f62;fill-opacity:1;fill-rule:nonzero;stroke:none;stroke-width:0.1"
       id="path282" />
    <path
       d="m 164.091,186.874 c 0,0 5.573,-1.04 10.823,-3.363 5.251,-2.323 14.419,-9.138 15.027,-9.703 0.607,-0.565 6.439,-11.419 6.439,-11.419 l 1.371,-11.107 c 0,0 -4.174,-1.68 -4.965,2.641 -0.791,4.32 -1.495,6.94 -1.495,6.94 l -3.841,6.248 2.048,-6.778 -0.567,-12.782 c 0,0 -3.268,-1.003 -3.843,2.297 -0.576,3.301 -1.533,7.11 -1.533,7.11 l -1.701,-9.274 c 0,0 -2.426,-1.226 -3.125,1.216 -0.699,2.443 -0.951,4.214 -0.951,4.214 0,0 -2.299,-1.917 -2.651,0.95 -0.353,2.868 -1.302,5.338 -1.302,5.338 l -4.933,6.023 c 0,0 -7.197,3.161 -9.574,6.038 -2.377,2.877 4.773,15.411 4.773,15.411"
       style="fill:#f9a78d;fill-opacity:1;fill-rule:nonzero;stroke:none;stroke-width:0.1"
       id="path284" />
    <path
       d="m 172.616,168.903 c 0.043,0.048 0.88,-0.559 2.138,-1.669 0.624,-0.559 1.351,-1.251 2.075,-2.107 0.709,-0.86 1.441,-1.893 1.836,-3.173 0.574,-2.559 0.512,-4.911 0.196,-6.58 -0.157,-0.833 -0.383,-1.485 -0.577,-1.916 -0.191,-0.433 -0.343,-0.649 -0.37,-0.636 -0.084,0.036 0.371,0.975 0.583,2.611 0.219,1.616 0.209,3.958 -0.332,6.375 -0.358,1.166 -1.039,2.166 -1.708,3.016 -0.682,0.846 -1.37,1.555 -1.956,2.142 -1.182,1.168 -1.938,1.878 -1.885,1.937"
       style="fill:#f57f62;fill-opacity:1;fill-rule:nonzero;stroke:none;stroke-width:0.1"
       id="path286" />
    <path
       d="m 179.046,170.407 c 0.051,0.041 0.642,-0.566 1.467,-1.657 0.819,-1.091 1.873,-2.687 2.655,-4.648 0.382,-0.982 0.642,-1.959 0.79,-2.863 0.124,-0.909 0.157,-1.739 0.082,-2.429 -0.133,-1.383 -0.497,-2.173 -0.541,-2.155 -0.092,0.024 0.139,0.84 0.173,2.175 0.027,0.668 -0.043,1.461 -0.187,2.329 -0.169,0.865 -0.432,1.801 -0.802,2.753 -0.757,1.9 -1.738,3.494 -2.472,4.627 -0.738,1.132 -1.227,1.819 -1.165,1.868"
       style="fill:#f57f62;fill-opacity:1;fill-rule:nonzero;stroke:none;stroke-width:0.1"
       id="path288" />
    <path
       d="m 90.2387,219.525 c 0.0039,0.015 0.2461,-0.032 0.7086,-0.136 0.4992,-0.117 1.173,-0.275 2.0261,-0.476 1.8047,-0.444 4.3618,-1.073 7.5496,-1.857 6.467,-1.633 15.486,-3.911 25.876,-6.535 l -0.309,-0.198 c 0.815,3.963 1.907,8.123 2.983,12.438 1.684,6.701 3.367,13.07 4.712,18.894 0.64,2.906 0.972,5.735 0.937,8.376 -0.034,2.641 -0.486,5.091 -1.28,7.187 -1.632,4.213 -4.593,6.736 -6.809,7.839 -2.262,1.125 -3.732,1.108 -3.708,1.191 0.001,0.009 0.089,0.005 0.259,-0.01 0.17,-0.02 0.426,-0.035 0.756,-0.092 0.657,-0.122 1.629,-0.355 2.783,-0.908 2.282,-1.066 5.347,-3.592 7.062,-7.888 0.834,-2.131 1.315,-4.628 1.369,-7.311 0.054,-2.684 -0.266,-5.546 -0.9,-8.487 -1.324,-5.851 -2.992,-12.216 -4.676,-18.919 -1.075,-4.308 -2.176,-8.485 -2.993,-12.401 l -0.056,-0.265 -0.255,0.067 c -10.372,2.695 -19.375,5.034 -25.831,6.712 -3.1719,0.845 -5.7164,1.522 -7.5121,2.001 -0.8446,0.234 -1.5118,0.419 -2.0059,0.557 -0.4551,0.131 -0.6902,0.206 -0.6863,0.221"
       style="fill:#17282f;fill-opacity:1;fill-rule:nonzero;stroke:none;stroke-width:0.1"
       id="path290" />
    <path
       d="m 136.998,297.993 c -9.049,3.734 -16.68,-1.229 -22.687,-8.462 8.499,-3.433 19.346,-2.304 22.687,8.462"
       style="fill:#976d2e;fill-opacity:1;fill-rule:nonzero;stroke:none;stroke-width:0.1"
       id="path292" />
    <path
       d="m 185.526,315.069 c 0,0 4.149,25.415 -19.812,31.175 -12.473,2.999 -21.708,-1.264 -27.271,-7.412 -5.983,-6.611 -8.331,-14.411 -8.332,-23.454 -0.002,-15.944 10.729,-25.411 10.729,-25.411 l 44.686,25.102"
       style="fill:#976d2e;fill-opacity:1;fill-rule:nonzero;stroke:none;stroke-width:0.1"
       id="path296" />
    <path
       d="m 169.483,267.196 c 0.321,5.179 0.426,7.304 0.427,7.256 0,0 11.901,2.297 14.881,16.445 1.481,7.035 0.829,17.652 0.706,27.187 -0.11,8.583 -7.475,20.236 -18.072,20.223 l -4.712,0.525 -17.995,-7.252 c -2.603,-0.144 -4.664,-2.257 -4.743,-4.863 l 0.153,-56.568 5.671,-3.868 c 7.643,-6.425 20.917,-5.44 23.684,0.915 v 0"
       style="fill:#f9a78d;fill-opacity:1;fill-rule:nonzero;stroke:none;stroke-width:0.1"
       id="path298" />
    <path
       d="m 179.452,307.764 c -0.014,-0.968 -0.845,-1.753 -1.856,-1.757 -1.009,-0.003 -1.817,0.776 -1.803,1.744 0.015,0.967 0.846,1.754 1.854,1.757 1.011,0.004 1.82,-0.777 1.805,-1.744"
       style="fill:#17282f;fill-opacity:1;fill-rule:nonzero;stroke:none;stroke-width:0.1"
       id="path300" />
    <path
       d="m 160.896,308.137 c -0.014,-0.968 -0.846,-1.753 -1.856,-1.757 -1.009,-0.003 -1.817,0.776 -1.803,1.744 0.014,0.967 0.846,1.754 1.854,1.757 1.011,0.004 1.819,-0.777 1.805,-1.744"
       style="fill:#17282f;fill-opacity:1;fill-rule:nonzero;stroke:none;stroke-width:0.1"
       id="path302" />
    <path
       d="m 182.617,313.27 c -0.239,-0.227 -1.573,0.867 -3.542,0.961 -1.964,0.122 -3.46,-0.819 -3.661,-0.567 -0.1,0.112 0.153,0.531 0.805,0.957 0.642,0.425 1.72,0.816 2.946,0.749 1.225,-0.068 2.234,-0.571 2.803,-1.063 0.582,-0.494 0.766,-0.936 0.649,-1.037"
       style="fill:#17282f;fill-opacity:1;fill-rule:nonzero;stroke:none;stroke-width:0.1"
       id="path304" />
    <path
       d="m 162.672,313.515 c -0.223,-0.242 -1.63,0.759 -3.599,0.719 -1.968,-0.011 -3.396,-1.05 -3.614,-0.813 -0.107,0.105 0.114,0.54 0.738,1.009 0.612,0.468 1.661,0.931 2.888,0.947 1.228,0.015 2.268,-0.419 2.87,-0.87 0.612,-0.455 0.826,-0.883 0.717,-0.992"
       style="fill:#17282f;fill-opacity:1;fill-rule:nonzero;stroke:none;stroke-width:0.1"
       id="path306" />
    <path
       d="m 169.664,297.865 c -0.004,0.112 1.23,0.262 3.225,0.416 0.505,0.027 0.986,0.103 1.088,0.442 0.136,0.357 -0.047,0.909 -0.261,1.506 -0.412,1.24 -0.842,2.54 -1.295,3.901 -1.79,5.552 -3.06,10.108 -2.836,10.177 0.225,0.071 1.858,-4.373 3.649,-9.924 0.429,-1.369 0.84,-2.673 1.231,-3.921 0.161,-0.581 0.456,-1.246 0.162,-1.986 -0.155,-0.369 -0.537,-0.623 -0.864,-0.694 -0.327,-0.082 -0.61,-0.073 -0.859,-0.075 -2,-0.008 -3.239,0.045 -3.24,0.158"
       style="fill:#17282f;fill-opacity:1;fill-rule:nonzero;stroke:none;stroke-width:0.1"
       id="path308" />
    <path
       d="m 169.855,274.507 c 0,0 -9.625,-0.138 -18.843,6.052 0,0 4.307,-10.113 18.647,-9.494 l 0.196,3.442"
       style="fill:#f57f62;fill-opacity:1;fill-rule:nonzero;stroke:none;stroke-width:0.1"
       id="path310" />
    <path
       d="m 168.593,293.163 c -0.661,0.971 -1.875,1.548 -3.113,1.477 -0.858,-0.05 -1.742,-0.418 -2.296,-1.088 -0.554,-0.669 -0.712,-1.651 -0.273,-2.338 0.494,-0.773 1.595,-1.001 2.547,-0.781 0.953,0.22 1.792,0.797 2.591,1.375 0.221,0.16 0.447,0.327 0.591,0.554 0.145,0.226 0.188,0.531 0.034,0.732"
       style="fill:#f57f62;fill-opacity:1;fill-rule:nonzero;stroke:none;stroke-width:0.1"
       id="path312" />
    <path
       d="m 163.803,296.794 c 0.321,0.002 0.218,-2.134 1.971,-3.742 1.748,-1.613 4.038,-1.487 4.04,-1.787 0.023,-0.135 -0.528,-0.389 -1.491,-0.367 -0.944,0.015 -2.306,0.387 -3.378,1.37 -1.069,0.986 -1.486,2.251 -1.515,3.131 -0.037,0.897 0.228,1.414 0.373,1.395"
       style="fill:#17282f;fill-opacity:1;fill-rule:nonzero;stroke:none;stroke-width:0.1"
       id="path314" />
    <path
       d="m 163.393,318.771 c -0.288,-0.481 -1.862,0.166 -3.848,0.365 -1.981,0.245 -3.69,-0.033 -3.83,0.496 -0.059,0.251 0.33,0.674 1.08,1.025 0.743,0.351 1.851,0.587 3.04,0.455 1.189,-0.134 2.192,-0.607 2.81,-1.11 0.623,-0.505 0.878,-1.001 0.748,-1.231"
       style="fill:#17282f;fill-opacity:1;fill-rule:nonzero;stroke:none;stroke-width:0.1"
       id="path316" />
    <path
       d="m 182.334,318.469 c -0.369,-0.429 -1.702,0.102 -3.331,0.206 -1.625,0.161 -3.026,-0.149 -3.32,0.334 -0.128,0.234 0.112,0.671 0.736,1.064 0.616,0.392 1.628,0.687 2.746,0.597 1.119,-0.092 2.069,-0.546 2.613,-1.032 0.553,-0.488 0.719,-0.958 0.556,-1.169"
       style="fill:#17282f;fill-opacity:1;fill-rule:nonzero;stroke:none;stroke-width:0.1"
       id="path318" />
    <path
       d="m 141.447,305.055 c 0,0 2.179,14.966 11.542,24.621 7.269,7.496 19.103,8.937 27.262,0.227 1.372,-1.464 3.278,-2.687 5.275,-9.217 0,0 -1.358,20.266 -19.416,22.49 -17.042,2.099 -25.748,-9.211 -28.524,-17.42 -2.705,-8.002 -2.034,-20.701 -2.034,-20.701 h 5.895"
       style="fill:#976d2e;fill-opacity:1;fill-rule:nonzero;stroke:none;stroke-width:0.1"
       id="path320" />
    <path
       d="m 143.007,306.38 c 0.05,1.062 -1.883,1.303 -2.924,1.52 -2.778,0.577 -7.838,0.605 -8.242,-6.506 -0.551,-9.72 9.322,-8.269 9.354,-7.991 0.026,0.217 1.637,9.31 1.812,12.977"
       style="fill:#f9a78d;fill-opacity:1;fill-rule:nonzero;stroke:none;stroke-width:0.1"
       id="path322" />
    <path
       d="m 138.435,297.254 c -0.041,0.034 -0.176,-0.109 -0.469,-0.223 -0.287,-0.112 -0.772,-0.173 -1.268,0.045 -1.005,0.435 -1.777,2.115 -1.725,3.869 0.025,0.887 0.258,1.718 0.611,2.398 0.337,0.694 0.825,1.165 1.348,1.227 0.521,0.09 0.869,-0.24 0.973,-0.52 0.115,-0.28 0.042,-0.47 0.093,-0.489 0.025,-0.027 0.217,0.15 0.162,0.556 -0.03,0.195 -0.13,0.431 -0.348,0.631 -0.223,0.203 -0.56,0.319 -0.923,0.301 -0.752,-0.01 -1.466,-0.661 -1.854,-1.407 -0.429,-0.747 -0.712,-1.681 -0.741,-2.676 -0.048,-1.962 0.85,-3.852 2.232,-4.338 0.674,-0.217 1.256,-0.043 1.564,0.17 0.314,0.222 0.378,0.437 0.345,0.456"
       style="fill:#f57f62;fill-opacity:1;fill-rule:nonzero;stroke:none;stroke-width:0.1"
       id="path324" />
    <path
       d="m 154.414,337.279 c 0.062,-0.088 -1.593,-1.159 -3.913,-3.302 -1.167,-1.062 -2.454,-2.436 -3.773,-4.049 -1.29,-1.635 -2.596,-3.523 -3.763,-5.626 -1.144,-2.116 -2.032,-4.234 -2.715,-6.202 -0.649,-1.98 -1.113,-3.804 -1.38,-5.36 -0.556,-3.108 -0.568,-5.08 -0.675,-5.075 -0.036,10e-4 -0.045,0.491 -0.031,1.382 0.001,0.446 0.018,0.99 0.089,1.619 0.065,0.629 0.105,1.351 0.254,2.135 0.223,1.58 0.655,3.436 1.287,5.45 0.667,2.002 1.554,4.155 2.715,6.301 1.182,2.133 2.519,4.039 3.847,5.679 1.356,1.617 2.687,2.981 3.898,4.019 0.581,0.547 1.168,0.97 1.663,1.363 0.492,0.399 0.941,0.707 1.316,0.948 0.743,0.491 1.162,0.748 1.181,0.718"
       style="fill:#17282f;fill-opacity:1;fill-rule:nonzero;stroke:none;stroke-width:0.1"
       id="path326" />
    <path
       d="m 178.466,337.418 c -0.066,-0.09 -1.582,1.286 -4.495,2.722 -2.879,1.439 -7.3,2.787 -12.241,2.464 -4.944,-0.326 -9.151,-2.241 -11.816,-4.044 -2.701,-1.804 -4.024,-3.367 -4.101,-3.285 -0.022,0.019 0.29,0.42 0.927,1.08 0.634,0.662 1.625,1.556 2.966,2.509 2.651,1.909 6.929,3.926 11.989,4.26 5.059,0.33 9.564,-1.11 12.442,-2.656 1.454,-0.769 2.553,-1.527 3.269,-2.1 0.718,-0.571 1.079,-0.927 1.06,-0.95"
       style="fill:#17212f;fill-opacity:1;fill-rule:nonzero;stroke:none;stroke-width:0.1"
       id="path328" />
    <path
       d="m 56.6934,250.257 c 0,0 6.1902,3.017 7.6629,-5.388 1.4726,-8.404 11.6398,-70.024 11.6398,-70.024 l 63.1919,0.501 c 0,0 22.086,2.344 31.148,-20.464 6.338,-15.954 4.069,-72.1621 4.069,-72.1621 L 173.209,43.425 58.9484,43.441 c 0,0 -3.53,82.36 -4.1195,118.983 -0.5891,36.623 -1.8441,76.57 1.8645,87.833"
       style="fill:#33535f;fill-opacity:1;fill-rule:nonzero;stroke:none;stroke-width:0.1"
       id="path330" />
    <path
       d="m 175.031,42.127 c -0.144,0 -0.26,18.2171 -0.26,40.6832 0,22.4738 0.116,40.6868 0.26,40.6868 0.144,0 0.26,-18.213 0.26,-40.6868 0,-22.4661 -0.116,-40.6832 -0.26,-40.6832"
       style="fill:#17282f;fill-opacity:1;fill-rule:nonzero;stroke:none;stroke-width:0.1"
       id="path332" />
    <path
       d="m 135.88,42.127 c -0.144,0 -0.26,27.2492 -0.26,60.854 0,33.616 0.116,60.859 0.26,60.859 0.144,0 0.261,-27.243 0.261,-60.859 0,-33.6048 -0.117,-60.854 -0.261,-60.854"
       style="fill:#17282f;fill-opacity:1;fill-rule:nonzero;stroke:none;stroke-width:0.1"
       id="path334" />
  </g>
</svg>
